<svg width="1440" height="244" viewBox="0 0 1440 244" xmlns="http://www.w3.org/2000/svg"><title>bg-header</title><path d="M1367.968.062c-71.063 1.893-60.246 81.19-64.507 116.616-33.4-72.694-115.88-50.248-125.397-44.108-57.606 28.86-38.547 98.237-32.62 110.876-18.762-29.677-56.424-28.163-68.785-21.74-16.408 8.53-26.147 20.904-31.137 34.61-7.405-7.88-18.34-14.213-31.51-18.263-90.13-28.294-161.557 3.354-227.72 52.06-4.283-7.044-9.413-14.312-15.54-21.82-29.72-36.44-99.912-58.923-134.332 14.568-2.63-18.847-35.72-136.007-116.767-83.75-12.503 8.063-33.2 32.676-19.252 92.376-9.753-15.035-47.013-66.03-103.385-52.73-13.785 3.25-41.228 21.63-55.786 52.862-6.102-8.99-11.918-17.512-19.784-25.2-39.336-39.972-67.28-27.72-81.442-7.892-2.487-2.22 8.747-44.5-12.69-76.258-18.27-42.78-128.78-96.483-159.43 26.99.66-6.408-8.26-19.122-13.12-23.965-15.573-18.27-47.253-13.998-54.58-11.847C.12 113.46.18 244 .18 244h1440L1440 22.27C1424.47 7.84 1401.407-.825 1367.968.063z" fill="#FFF013" fill-rule="evenodd"/></svg>